<?xml version="1.0" standalone="no"?><svg xmlns:xlink="http://www.w3.org/1999/xlink" xmlns="http://www.w3.org/2000/svg" viewBox="0 0 1000 900.0000000000001" preserveAspectRatio="xMaxYMax slice"><g transform="scale(1.6051364365971108)"><rect x="0" y="0" width="623" height="623" fill="#442e94"/><rect x="336.42" y="24.92" width="12.459999999999994" height="12.459999999999994" fill="#442e94"/><rect x="342.65" y="31.15" width="6.23" height="6.23" fill="#456ae3"/><rect x="24.92" y="87.22" width="12.459999999999994" height="12.459999999999994" fill="#442e94"/><g transform="translate(24.92,93.45) scale(0.3115) rotate(0)"><rect width="20" height="10" fill="#c93bc2"/></g><rect x="85.78460799999999" y="85.78460799999999" width="15.330783999999994" height="15.330783999999994" fill="#442e94"/><rect x="85.78" y="93.45" width="7.67" height="7.67" fill="#c93bc2"/><rect x="330.4392" y="81.2392" width="24.421599999999998" height="24.421599999999998" fill="#442e94"/><rect x="342.65" y="93.45" width="12.21" height="12.21" fill="#456ae3"/><rect x="584.1846079999999" y="85.78460799999999" width="15.330783999999994" height="15.330783999999994" fill="#442e94"/><rect x="84.349216" y="146.649216" width="18.201567999999995" height="18.201567999999995" fill="#442e94"/><rect x="203.20764799999998" y="140.907648" width="29.684703999999996" height="29.684703999999996" fill="#442e94"/><g transform="translate(203.21,155.75) scale(0.742) rotate(0)"><rect width="20" height="10" fill="#456ae3"/></g><rect x="387.23686399999997" y="138.03686399999998" width="35.426272" height="35.426272" fill="#442e94"/><g transform="translate(387.24,138.04) scale(0.8855000000000001) rotate(0)"><rect width="20" height="10" fill="#456ae3"/></g><g transform="translate(404.95,155.75) scale(0.8855000000000001) rotate(0)"><rect width="20" height="10" fill="#c93bc2"/></g><rect x="24.92" y="211.82" width="12.459999999999994" height="12.459999999999994" fill="#442e94"/><g transform="translate(24.92,218.05) scale(0.3115) rotate(0)"><rect width="20" height="10" fill="#c93bc2"/></g><rect x="256.895296" y="194.595296" width="46.90940799999999" height="46.90940799999999" fill="#442e94"/><g transform="translate(280.35,194.6) scale(1.1724999999999999) rotate(0)"><rect width="20" height="10" fill="#c93bc2"/></g><g transform="translate(280.35,218.05) scale(1.1724999999999999) rotate(0)"><rect width="20" height="10" fill="#c93bc2"/></g><rect x="514.707648" y="203.20764799999998" width="29.684703999999996" height="29.684703999999996" fill="#442e94"/><g transform="translate(514.71,203.21) scale(0.742) rotate(0)"><rect width="20" height="10" fill="#456ae3"/></g><g transform="translate(529.55,203.21) scale(0.742) rotate(0)"><rect width="20" height="10" fill="#456ae3"/></g><rect x="529.55" y="218.05" width="14.84" height="14.84" fill="#c93bc2"/><rect x="24.92" y="274.12" width="12.459999999999994" height="12.459999999999994" fill="#442e94"/><g transform="translate(31.15,274.12) scale(0.3115) rotate(0)"><rect width="20" height="10" fill="#c93bc2"/></g><rect x="31.15" y="280.35" width="6.23" height="6.23" fill="#c93bc2"/><rect x="137.5584" y="324.4584" width="36.383199999999995" height="36.383199999999995" fill="#442e94"/><rect x="155.75" y="324.46" width="18.19" height="18.19" fill="#456ae3"/><g transform="translate(137.56,342.65) scale(0.9095000000000001) rotate(0)"><rect width="20" height="10" fill="#456ae3"/></g><g transform="translate(155.75,342.65) scale(0.9095000000000001) rotate(0)"><rect width="20" height="10" fill="#456ae3"/></g><rect x="193.87759999999997" y="318.4776" width="48.34479999999999" height="48.34479999999999" fill="#442e94"/><g transform="translate(193.88,342.65) scale(1.2085000000000001) rotate(0)"><rect width="20" height="10" fill="#456ae3"/></g><rect x="250.1968" y="312.4968" width="60.3064" height="60.3064" fill="#442e94"/><rect x="250.2" y="342.65" width="30.15" height="30.15" fill="#c93bc2"/><rect x="511.35839999999996" y="324.4584" width="36.383199999999995" height="36.383199999999995" fill="#442e94"/><rect x="511.36" y="324.46" width="18.19" height="18.19" fill="#456ae3"/><g transform="translate(529.55,324.46) scale(0.9095000000000001) rotate(0)"><rect width="20" height="10" fill="#456ae3"/></g><rect x="579.6392" y="330.4392" width="24.421599999999998" height="24.421599999999998" fill="#442e94"/><rect x="24.92" y="398.71999999999997" width="12.459999999999994" height="12.459999999999994" fill="#442e94"/><g transform="translate(24.92,398.72) scale(0.3115) rotate(0)"><rect width="20" height="10" fill="#456ae3"/></g><rect x="31.15" y="398.72" width="6.23" height="6.23" fill="#456ae3"/><rect x="138.03686399999998" y="387.23686399999997" width="35.426272" height="35.426272" fill="#442e94"/><g transform="translate(138.04,387.24) scale(0.8855000000000001) rotate(0)"><rect width="20" height="10" fill="#456ae3"/></g><g transform="translate(155.75,404.95) scale(0.8855000000000001) rotate(0)"><rect width="20" height="10" fill="#c93bc2"/></g><rect x="194.595296" y="381.49529599999994" width="46.90940799999999" height="46.90940799999999" fill="#442e94"/><rect x="312.4968" y="374.79679999999996" width="60.3064" height="60.3064" fill="#442e94"/><g transform="translate(342.65,374.8) scale(1.5074999999999998) rotate(0)"><rect width="20" height="10" fill="#456ae3"/></g><rect x="312.5" y="404.95" width="30.15" height="30.15" fill="#c93bc2"/><g transform="translate(342.65,404.95) scale(1.5074999999999998) rotate(0)"><rect width="20" height="10" fill="#c93bc2"/></g><rect x="443.79529599999995" y="381.49529599999994" width="46.90940799999999" height="46.90940799999999" fill="#442e94"/><g transform="translate(443.8,381.5) scale(1.1724999999999999) rotate(0)"><rect width="20" height="10" fill="#c93bc2"/></g><g transform="translate(467.25,404.95) scale(1.1724999999999999) rotate(0)"><rect width="20" height="10" fill="#c93bc2"/></g><rect x="579.878432" y="392.97843199999994" width="23.943135999999996" height="23.943135999999996" fill="#442e94"/><g transform="translate(579.88,392.98) scale(0.5985) rotate(0)"><rect width="20" height="10" fill="#456ae3"/></g><rect x="140.907648" y="452.407648" width="29.684703999999996" height="29.684703999999996" fill="#442e94"/><rect x="155.75" y="452.41" width="14.84" height="14.84" fill="#c93bc2"/><rect x="155.75" y="467.25" width="14.84" height="14.84" fill="#456ae3"/><rect x="514.707648" y="452.407648" width="29.684703999999996" height="29.684703999999996" fill="#442e94"/><g transform="translate(514.71,467.25) scale(0.742) rotate(0)"><rect width="20" height="10" fill="#c93bc2"/></g><rect x="581.313824" y="456.713824" width="21.072351999999995" height="21.072351999999995" fill="#442e94"/><rect x="591.85" y="456.71" width="10.54" height="10.54" fill="#456ae3"/><rect x="24.92" y="523.3199999999999" width="12.459999999999994" height="12.459999999999994" fill="#442e94"/><rect x="84.349216" y="520.449216" width="18.201567999999995" height="18.201567999999995" fill="#442e94"/><g transform="translate(84.35,520.45) scale(0.45499999999999996) rotate(0)"><rect width="20" height="10" fill="#c93bc2"/></g><rect x="93.45" y="529.55" width="9.1" height="9.1" fill="#c93bc2"/><rect x="582.7492159999999" y="520.449216" width="18.201567999999995" height="18.201567999999995" fill="#442e94"/><g transform="translate(582.75,529.55) scale(0.45499999999999996) rotate(0)"><rect width="20" height="10" fill="#c93bc2"/></g><g transform="translate(591.85,529.55) scale(0.45499999999999996) rotate(0)"><rect width="20" height="10" fill="#456ae3"/></g><rect x="24.92" y="585.6199999999999" width="12.459999999999994" height="12.459999999999994" fill="#442e94"/><rect x="31.15" y="585.62" width="6.23" height="6.23" fill="#c93bc2"/><g transform="translate(24.92,591.85) scale(0.3115) rotate(0)"><rect width="20" height="10" fill="#456ae3"/></g><g transform="translate(31.15,591.85) scale(0.3115) rotate(0)"><rect width="20" height="10" fill="#c93bc2"/></g><rect x="85.78460799999999" y="584.1846079999999" width="15.330783999999994" height="15.330783999999994" fill="#442e94"/><rect x="93.45" y="584.18" width="7.67" height="7.67" fill="#456ae3"/><rect x="207.51382399999997" y="581.313824" width="21.072351999999995" height="21.072351999999995" fill="#442e94"/><g transform="translate(218.05,581.31) scale(0.5269999999999999) rotate(0)"><rect width="20" height="10" fill="#456ae3"/></g><rect x="218.05" y="591.85" width="10.54" height="10.54" fill="#456ae3"/><rect x="456.713824" y="581.313824" width="21.072351999999995" height="21.072351999999995" fill="#442e94"/><rect x="456.71" y="581.31" width="10.54" height="10.54" fill="#456ae3"/><g transform="translate(456.71,591.85) scale(0.5269999999999999) rotate(0)"><rect width="20" height="10" fill="#456ae3"/></g><rect x="584.1846079999999" y="584.1846079999999" width="15.330783999999994" height="15.330783999999994" fill="#442e94"/><rect x="584.18" y="584.18" width="7.67" height="7.67" fill="#456ae3"/><g transform="translate(591.85,584.18) scale(0.3835) rotate(0)"><rect width="20" height="10" fill="#456ae3"/></g><rect x="584.18" y="591.85" width="7.67" height="7.67" fill="#456ae3"/></g></svg>